<?xml version="1.0"?>
<svg xmlns="http://www.w3.org/2000/svg" id="Capa_1" enable-background="new 0 0 512.019 512.019" height="512px" viewBox="0 0 512.019 512.019" width="512px" class=""><g><g><path d="m256.009.168c-141.164 0-256.009 114.77-256.009 255.841s114.845 255.841 256.009 255.841 256.009-114.77 256.009-255.841-114.845-255.841-256.009-255.841zm0 481.682c-124.622 0-226.009-101.311-226.009-225.841s101.387-225.841 226.009-225.841 226.01 101.312 226.01 225.841-101.388 225.841-226.01 225.841z" data-original="#000000" class="active-path" data-old_color="#000000" fill="#FFFFFF"/><path d="m256.009 214.258c25.738 0 46.677-20.939 46.677-46.678 0-25.737-20.939-46.677-46.677-46.677s-46.677 20.939-46.677 46.677c0 25.739 20.939 46.678 46.677 46.678zm0-63.354c9.196 0 16.677 7.481 16.677 16.677s-7.481 16.678-16.677 16.678-16.677-7.481-16.677-16.678c0-9.196 7.481-16.677 16.677-16.677z" data-original="#000000" class="active-path" data-old_color="#000000" fill="#FFFFFF"/><path d="m256.009 297.164c-25.738 0-46.677 20.939-46.677 46.678 0 25.737 20.939 46.677 46.677 46.677s46.677-20.939 46.677-46.677c.001-25.739-20.939-46.678-46.677-46.678zm0 63.354c-9.196 0-16.677-7.481-16.677-16.677s7.481-16.678 16.677-16.678 16.677 7.481 16.677 16.678c.001 9.196-7.481 16.677-16.677 16.677z" data-original="#000000" class="active-path" data-old_color="#000000" fill="#FFFFFF"/><path d="m256.009 64.15c-105.888 0-192.034 86.067-192.034 191.859s86.146 191.859 192.034 191.859 192.034-86.067 192.034-191.859-86.146-191.859-192.034-191.859zm-162.034 191.859c0-89.25 72.688-161.859 162.034-161.859 40.493 0 73.437 32.942 73.437 73.435 0 19.614-7.639 38.055-21.509 51.923-13.869 13.867-32.303 21.502-51.915 21.502-.007-.001-.018-.001-.026 0-27.623 0-53.592 10.756-73.126 30.287-19.538 19.535-30.297 45.509-30.297 73.138 0 15.51 3.438 30.229 9.582 43.447-41.239-29.373-68.18-77.538-68.18-131.873zm162.034 161.86c-.004 0-.008 0-.012 0v-.009c-40.486 0-73.425-32.938-73.425-73.426 0-19.614 7.639-38.055 21.509-51.923 13.869-13.867 32.303-21.502 51.915-21.502.006-.001.018-.001.025 0 27.623 0 53.593-10.756 73.127-30.287 19.538-19.535 30.297-45.509 30.297-73.138 0-15.509-3.438-30.229-9.581-43.446 41.237 29.371 68.178 77.537 68.178 131.871.001 89.25-72.687 161.86-162.033 161.86z" data-original="#000000" class="active-path" data-old_color="#000000" fill="#FFFFFF"/></g></g> </svg>
