<svg id="Capa_1" enable-background="new 0 0 512.029 512.029" height="512" viewBox="0 0 512.029 512.029" width="512" xmlns="http://www.w3.org/2000/svg"><g><path d="m220.464 213.229c0 19.603 15.947 35.55 35.55 35.55s35.55-15.947 35.55-35.55-15.947-35.55-35.55-35.55-35.55 15.947-35.55 35.55zm56.1 0c0 11.331-9.219 20.55-20.55 20.55s-20.55-9.219-20.55-20.55 9.219-20.55 20.55-20.55 20.55 9.219 20.55 20.55z"/><path d="m291.564 406.651c0-19.603-15.947-35.55-35.55-35.55s-35.55 15.947-35.55 35.55 15.947 35.55 35.55 35.55 35.55-15.948 35.55-35.55zm-56.1 0c0-11.331 9.219-20.55 20.55-20.55s20.55 9.219 20.55 20.55-9.219 20.55-20.55 20.55-20.55-9.219-20.55-20.55z"/><path d="m357.899 145.186c8.479-15.431 12.931-32.744 12.931-50.528v-9.742c0-4.143-3.357-7.5-7.5-7.5h-9.742c-.194 0-.386.01-.58.011 1.473-10.718 1.274-21.558-.615-32.345l-1.68-9.597c-.343-1.96-1.45-3.702-3.078-4.846-1.629-1.142-3.641-1.592-5.604-1.249l-9.597 1.681c-13.476 2.36-26.427 7.367-37.943 14.621-.959-2.017-1.967-4.016-3.037-5.989-1.975-3.642-6.526-4.994-10.168-3.018-3.642 1.975-4.992 6.527-3.018 10.168 11.629 21.441 16.307 47.059 11.627 72.896-11.013-1.911-22.332-2.918-33.883-2.918-11.495 0-22.819.968-33.898 2.866-6.295-34.992 4.249-71.944 30.817-98.509l3.081-3.082c2.702 2.723 3.435 3.383 5.589 5.681 2.831 3.021 7.576 3.176 10.601.343 3.022-2.832 3.176-7.578.343-10.601-2.648-2.826-3.347-3.419-11.229-11.333-2.93-2.928-7.678-2.928-10.607 0l-8.385 8.385c-10.246 10.247-18.608 22.156-24.774 35.119-11.521-7.258-24.476-12.268-37.956-14.629l-9.597-1.681c-4.078-.711-7.967 2.015-8.682 6.094l-1.681 9.597c-1.889 10.786-2.087 21.627-.614 32.346-.194-.001-.387-.011-.581-.011h-9.741c-4.143 0-7.5 3.357-7.5 7.5v9.742c0 17.748 4.435 35.026 12.88 50.434-7.074 4.285-13.925 9.042-20.524 14.261-34.113 26.979-58.689 64.944-69.2 106.9-1.007 4.018 1.435 8.091 5.453 9.098 4.014 1.009 8.091-1.435 9.098-5.453 9.711-38.762 32.423-73.843 63.954-98.779 12.1-9.571 26.04-18.09 41.01-24.548-18.76 18.593-30.397 44.366-30.397 72.803 0 56.542 46 102.542 102.542 102.542 48.271 0 87.542 39.271 87.542 87.542 0 48.257-39.264 87.542-87.542 87.542-100.677 0-182.584-81.908-182.584-182.584 0-5.264.241-10.684.716-16.11.361-4.126-2.691-7.764-6.818-8.125-4.104-.355-7.763 2.691-8.125 6.818-.513 5.859-.772 11.719-.772 17.417 0 113.6 95.488 200.541 200.566 197.538 65.548-.978 126.002-34.1 162.173-89.065 2.277-3.46 1.318-8.111-2.142-10.388-3.461-2.28-8.112-1.318-10.388 2.142-20.012 30.41-48.068 53.584-80.356 67.49 18.687-18.583 30.272-44.301 30.272-72.674 0-56.542-46-102.542-102.542-102.542-48.271 0-87.542-39.271-87.542-87.542s39.271-87.542 87.542-87.542c100.678 0 182.585 81.907 182.585 182.584 0 26.13-5.403 51.357-16.06 74.983-1.703 3.776-.022 8.218 3.753 9.921 1.001.451 2.049.665 3.079.665 2.859 0 5.59-1.644 6.842-4.418 11.536-25.578 17.386-52.881 17.386-81.151 0-71.703-38.395-134.602-95.7-169.231zm-22.876-99.34 2.208-.387.387 2.209c1.81 10.334 1.812 20.724.024 30.957-10.96 1.669-21.547 5.067-31.434 10.073-.865-9.8-2.879-19.476-6.005-28.837 10.476-7.091 22.165-11.799 34.82-14.015zm-28.465 59.815c14.134-8.673 30.309-13.246 47.029-13.246h2.242v2.242c0 15.231-3.807 30.055-11.057 43.267-12.681-6.404-26.14-11.482-40.197-15.048 1.058-5.715 1.717-11.466 1.983-17.215zm-132.148-57.993.387-2.209 2.209.387c12.655 2.216 24.346 6.926 34.826 14.02-3.099 9.282-5.088 18.737-5.978 28.85-9.897-5.016-20.495-8.419-31.467-10.09-1.788-10.235-1.786-20.624.023-30.958zm-7.209 90.154c-7.212-13.187-11.002-27.973-11.002-43.164v-2.242h2.241c16.73 0 32.914 4.577 47.053 13.261.262 5.736.906 11.457 1.944 17.117-13.929 3.502-27.394 8.533-40.236 15.028z"/></g></svg>